<svg xmlns="http://www.w3.org/2000/svg" version="1.1" xmlns:xlink="http://www.w3.org/1999/xlink" xmlns:svgjs="http://svgjs.dev/svgjs" width="1440" height="560" preserveAspectRatio="none" viewBox="0 0 1440 560">
    <g mask="url(&quot;#SvgjsMask1009&quot;)" fill="none">
        <rect width="1440" height="560" x="0" y="0" fill="rgba(15, 14, 14, 1)"></rect>
        <g mask="url(&quot;#SvgjsMask1010&quot;)">
            <path d="M247 221L117 351L13 351" stroke-width="4.33" stroke="rgba(62, 199, 11, 0.15)"></path>
            <path d="M240.5 221 a6.5 6.5 0 1 0 13 0 a6.5 6.5 0 1 0 -13 0zM6.5 351 a6.5 6.5 0 1 0 13 0 a6.5 6.5 0 1 0 -13 0z" fill="rgba(62, 199, 11, 0.15)"></path>
            <path d="M1001 273L949 325L741 325L585 481L585 533L611 559" stroke-width="4.33" stroke="rgba(62, 199, 11, 0.15)"></path>
            <path d="M994.5 273 a6.5 6.5 0 1 0 13 0 a6.5 6.5 0 1 0 -13 0zM604.5 559 a6.5 6.5 0 1 0 13 0 a6.5 6.5 0 1 0 -13 0z" fill="rgba(62, 199, 11, 0.15)"></path>
            <path d="M481 351L273 559L91 559L13 481L13 455" stroke-width="4.33" stroke="rgba(62, 199, 11, 0.15)"></path>
            <path d="M474.5 351 a6.5 6.5 0 1 0 13 0 a6.5 6.5 0 1 0 -13 0zM6.5 455 a6.5 6.5 0 1 0 13 0 a6.5 6.5 0 1 0 -13 0z" fill="rgba(62, 199, 11, 0.15)"></path>
            <path d="M39 65L39 13" stroke-width="4.33" stroke="rgba(62, 199, 11, 0.15)"></path>
            <path d="M32.5 65 a6.5 6.5 0 1 0 13 0 a6.5 6.5 0 1 0 -13 0zM32.5 13 a6.5 6.5 0 1 0 13 0 a6.5 6.5 0 1 0 -13 0z" fill="rgba(62, 199, 11, 0.15)"></path>
            <path d="M975 533L1053 455L1079 455L1183 559L1235 559L1261 533L1287 533L1365 455L1443 455" stroke-width="4.33" stroke="rgba(62, 199, 11, 0.15)"></path>
            <path d="M968.5 533 a6.5 6.5 0 1 0 13 0 a6.5 6.5 0 1 0 -13 0zM1436.5 455 a6.5 6.5 0 1 0 13 0 a6.5 6.5 0 1 0 -13 0z" fill="rgba(62, 199, 11, 0.15)"></path>
            <path d="M663 559L845 559L923 481L923 351" stroke-width="4.33" stroke="rgba(62, 199, 11, 0.15)"></path>
            <path d="M656.5 559 a6.5 6.5 0 1 0 13 0 a6.5 6.5 0 1 0 -13 0zM916.5 351 a6.5 6.5 0 1 0 13 0 a6.5 6.5 0 1 0 -13 0z" fill="rgba(62, 199, 11, 0.15)"></path>
            <path d="M923 299L481 299L429 351" stroke-width="4.33" stroke="rgba(62, 199, 11, 0.15)"></path>
            <path d="M916.5 299 a6.5 6.5 0 1 0 13 0 a6.5 6.5 0 1 0 -13 0zM422.5 351 a6.5 6.5 0 1 0 13 0 a6.5 6.5 0 1 0 -13 0z" fill="rgba(62, 199, 11, 0.15)"></path>
            <path d="M325 195L507 13L715 13L819 117" stroke-width="4.33" stroke="rgba(62, 199, 11, 0.15)"></path>
            <path d="M318.5 195 a6.5 6.5 0 1 0 13 0 a6.5 6.5 0 1 0 -13 0zM812.5 117 a6.5 6.5 0 1 0 13 0 a6.5 6.5 0 1 0 -13 0z" fill="rgba(62, 199, 11, 0.15)"></path>
            <path d="M377 65L117 325L13 325" stroke-width="4.33" stroke="rgba(62, 199, 11, 0.15)"></path>
            <path d="M370.5 65 a6.5 6.5 0 1 0 13 0 a6.5 6.5 0 1 0 -13 0zM6.5 325 a6.5 6.5 0 1 0 13 0 a6.5 6.5 0 1 0 -13 0z" fill="rgba(62, 199, 11, 0.15)"></path>
            <path d="M793 65L871 143L871 247L845 273L559 273" stroke-width="4.33" stroke="rgba(62, 199, 11, 0.15)"></path>
            <path d="M786.5 65 a6.5 6.5 0 1 0 13 0 a6.5 6.5 0 1 0 -13 0zM552.5 273 a6.5 6.5 0 1 0 13 0 a6.5 6.5 0 1 0 -13 0z" fill="rgba(62, 199, 11, 0.15)"></path>
            <path d="M1339 403L1339 455L1287 507L1209 507L1183 533" stroke-width="4.33" stroke="rgba(62, 199, 11, 0.15)"></path>
            <path d="M1332.5 403 a6.5 6.5 0 1 0 13 0 a6.5 6.5 0 1 0 -13 0zM1176.5 533 a6.5 6.5 0 1 0 13 0 a6.5 6.5 0 1 0 -13 0z" fill="rgba(62, 199, 11, 0.15)"></path>
            <path d="M1105 507L1079 481L1053 481L975 559L949 559L923 533L923 507L1131 299L1131 221" stroke-width="4.33" stroke="rgba(62, 199, 11, 0.15)"></path>
            <path d="M1098.5 507 a6.5 6.5 0 1 0 13 0 a6.5 6.5 0 1 0 -13 0zM1124.5 221 a6.5 6.5 0 1 0 13 0 a6.5 6.5 0 1 0 -13 0z" fill="rgba(62, 199, 11, 0.15)"></path>
            <path d="M871 117L1079 325" stroke-width="4.33" stroke="rgba(62, 199, 11, 0.15)"></path>
            <path d="M864.5 117 a6.5 6.5 0 1 0 13 0 a6.5 6.5 0 1 0 -13 0zM1072.5 325 a6.5 6.5 0 1 0 13 0 a6.5 6.5 0 1 0 -13 0z" fill="rgba(62, 199, 11, 0.15)"></path>
            <path d="M299 247L299 169L403 65L403 13" stroke-width="4.33" stroke="rgba(62, 199, 11, 0.15)"></path>
            <path d="M292.5 247 a6.5 6.5 0 1 0 13 0 a6.5 6.5 0 1 0 -13 0zM396.5 13 a6.5 6.5 0 1 0 13 0 a6.5 6.5 0 1 0 -13 0z" fill="rgba(62, 199, 11, 0.15)"></path>
            <path d="M559 39L351 247L325 247L65 507" stroke-width="4.33" stroke="rgba(62, 199, 11, 0.15)"></path>
            <path d="M552.5 39 a6.5 6.5 0 1 0 13 0 a6.5 6.5 0 1 0 -13 0zM58.5 507 a6.5 6.5 0 1 0 13 0 a6.5 6.5 0 1 0 -13 0z" fill="rgba(62, 199, 11, 0.15)"></path>
            <path d="M585 39L585 65L767 247L845 247" stroke-width="4.33" stroke="rgba(62, 199, 11, 0.15)"></path>
            <path d="M578.5 39 a6.5 6.5 0 1 0 13 0 a6.5 6.5 0 1 0 -13 0zM838.5 247 a6.5 6.5 0 1 0 13 0 a6.5 6.5 0 1 0 -13 0z" fill="rgba(62, 199, 11, 0.15)"></path>
            <path d="M1235 455L1313 455" stroke-width="4.33" stroke="rgba(62, 199, 11, 0.15)"></path>
            <path d="M1228.5 455 a6.5 6.5 0 1 0 13 0 a6.5 6.5 0 1 0 -13 0zM1306.5 455 a6.5 6.5 0 1 0 13 0 a6.5 6.5 0 1 0 -13 0z" fill="rgba(62, 199, 11, 0.15)"></path>
            <path d="M559 169L559 247L533 273L507 273L429 195" stroke-width="4.33" stroke="rgba(62, 199, 11, 0.15)"></path>
            <path d="M552.5 169 a6.5 6.5 0 1 0 13 0 a6.5 6.5 0 1 0 -13 0zM422.5 195 a6.5 6.5 0 1 0 13 0 a6.5 6.5 0 1 0 -13 0z" fill="rgba(62, 199, 11, 0.15)"></path>
            <path d="M273 39L273 143L117 299L13 299" stroke-width="4.33" stroke="rgba(62, 199, 11, 0.15)"></path>
            <path d="M266.5 39 a6.5 6.5 0 1 0 13 0 a6.5 6.5 0 1 0 -13 0zM6.5 299 a6.5 6.5 0 1 0 13 0 a6.5 6.5 0 1 0 -13 0z" fill="rgba(62, 199, 11, 0.15)"></path>
            <path d="M1443 13L1209 247L1157 247" stroke-width="4.33" stroke="rgba(62, 199, 11, 0.15)"></path>
            <path d="M1436.5 13 a6.5 6.5 0 1 0 13 0 a6.5 6.5 0 1 0 -13 0zM1150.5 247 a6.5 6.5 0 1 0 13 0 a6.5 6.5 0 1 0 -13 0z" fill="rgba(62, 199, 11, 0.15)"></path>
            <path d="M117 91L65 39L65 13" stroke-width="4.33" stroke="rgba(62, 199, 11, 0.15)"></path>
            <path d="M110.5 91 a6.5 6.5 0 1 0 13 0 a6.5 6.5 0 1 0 -13 0zM58.5 13 a6.5 6.5 0 1 0 13 0 a6.5 6.5 0 1 0 -13 0z" fill="rgba(62, 199, 11, 0.15)"></path>
            <path d="M273 273L273 195" stroke-width="4.33" stroke="rgba(62, 199, 11, 0.15)"></path>
            <path d="M266.5 273 a6.5 6.5 0 1 0 13 0 a6.5 6.5 0 1 0 -13 0zM266.5 195 a6.5 6.5 0 1 0 13 0 a6.5 6.5 0 1 0 -13 0z" fill="rgba(62, 199, 11, 0.15)"></path>
            <path d="M897 273L897 169" stroke-width="4.33" stroke="rgba(62, 199, 11, 0.15)"></path>
            <path d="M890.5 273 a6.5 6.5 0 1 0 13 0 a6.5 6.5 0 1 0 -13 0zM890.5 169 a6.5 6.5 0 1 0 13 0 a6.5 6.5 0 1 0 -13 0z" fill="rgba(62, 199, 11, 0.15)"></path>
            <path d="M325 13L299 39L299 117" stroke-width="4.33" stroke="rgba(62, 199, 11, 0.15)"></path>
            <path d="M318.5 13 a6.5 6.5 0 1 0 13 0 a6.5 6.5 0 1 0 -13 0zM292.5 117 a6.5 6.5 0 1 0 13 0 a6.5 6.5 0 1 0 -13 0z" fill="rgba(62, 199, 11, 0.15)"></path>
            <path d="M143 507L403 247L455 247L481 273" stroke-width="4.33" stroke="rgba(62, 199, 11, 0.15)"></path>
            <path d="M136.5 507 a6.5 6.5 0 1 0 13 0 a6.5 6.5 0 1 0 -13 0zM474.5 273 a6.5 6.5 0 1 0 13 0 a6.5 6.5 0 1 0 -13 0z" fill="rgba(62, 199, 11, 0.15)"></path>
            <path d="M949 377L1027 377L1053 351L1053 325L1027 299L1001 299L949 351" stroke-width="4.33" stroke="rgba(62, 199, 11, 0.15)"></path>
            <path d="M942.5 377 a6.5 6.5 0 1 0 13 0 a6.5 6.5 0 1 0 -13 0zM942.5 351 a6.5 6.5 0 1 0 13 0 a6.5 6.5 0 1 0 -13 0z" fill="rgba(62, 199, 11, 0.15)"></path>
            <path d="M481 195L481 143L559 65" stroke-width="4.33" stroke="rgba(62, 199, 11, 0.15)"></path>
            <path d="M474.5 195 a6.5 6.5 0 1 0 13 0 a6.5 6.5 0 1 0 -13 0zM552.5 65 a6.5 6.5 0 1 0 13 0 a6.5 6.5 0 1 0 -13 0z" fill="rgba(62, 199, 11, 0.15)"></path>
            <path d="M247 377L351 273" stroke-width="4.33" stroke="rgba(62, 199, 11, 0.15)"></path>
            <path d="M240.5 377 a6.5 6.5 0 1 0 13 0 a6.5 6.5 0 1 0 -13 0zM344.5 273 a6.5 6.5 0 1 0 13 0 a6.5 6.5 0 1 0 -13 0z" fill="rgba(62, 199, 11, 0.15)"></path>
            <path d="M1157 403L1157 507" stroke-width="4.33" stroke="rgba(62, 199, 11, 0.15)"></path>
            <path d="M1150.5 403 a6.5 6.5 0 1 0 13 0 a6.5 6.5 0 1 0 -13 0zM1150.5 507 a6.5 6.5 0 1 0 13 0 a6.5 6.5 0 1 0 -13 0z" fill="rgba(62, 199, 11, 0.15)"></path>
            <path d="M1443 403L1417 429L1365 429" stroke-width="4.33" stroke="rgba(62, 199, 11, 0.15)"></path>
            <path d="M1436.5 403 a6.5 6.5 0 1 0 13 0 a6.5 6.5 0 1 0 -13 0zM1358.5 429 a6.5 6.5 0 1 0 13 0 a6.5 6.5 0 1 0 -13 0z" fill="rgba(62, 199, 11, 0.15)"></path>
            <path d="M611 325L377 559L299 559" stroke-width="4.33" stroke="rgba(62, 199, 11, 0.15)"></path>
            <path d="M604.5 325 a6.5 6.5 0 1 0 13 0 a6.5 6.5 0 1 0 -13 0zM292.5 559 a6.5 6.5 0 1 0 13 0 a6.5 6.5 0 1 0 -13 0z" fill="rgba(62, 199, 11, 0.15)"></path>
            <path d="M1339 91L1235 195L975 195L845 65" stroke-width="4.33" stroke="rgba(62, 199, 11, 0.15)"></path>
            <path d="M1332.5 91 a6.5 6.5 0 1 0 13 0 a6.5 6.5 0 1 0 -13 0zM838.5 65 a6.5 6.5 0 1 0 13 0 a6.5 6.5 0 1 0 -13 0z" fill="rgba(62, 199, 11, 0.15)"></path>
            <path d="M1235 299L1209 273L1183 273L1001 455L1001 481" stroke-width="4.33" stroke="rgba(62, 199, 11, 0.15)"></path>
            <path d="M1228.5 299 a6.5 6.5 0 1 0 13 0 a6.5 6.5 0 1 0 -13 0zM994.5 481 a6.5 6.5 0 1 0 13 0 a6.5 6.5 0 1 0 -13 0z" fill="rgba(62, 199, 11, 0.15)"></path>
            <path d="M1131 351L1209 429L1209 481L1183 507" stroke-width="4.33" stroke="rgba(62, 199, 11, 0.15)"></path>
            <path d="M1124.5 351 a6.5 6.5 0 1 0 13 0 a6.5 6.5 0 1 0 -13 0zM1176.5 507 a6.5 6.5 0 1 0 13 0 a6.5 6.5 0 1 0 -13 0z" fill="rgba(62, 199, 11, 0.15)"></path>
            <path d="M247 13L247 117" stroke-width="4.33" stroke="rgba(62, 199, 11, 0.15)"></path>
            <path d="M240.5 13 a6.5 6.5 0 1 0 13 0 a6.5 6.5 0 1 0 -13 0zM240.5 117 a6.5 6.5 0 1 0 13 0 a6.5 6.5 0 1 0 -13 0z" fill="rgba(62, 199, 11, 0.15)"></path>
            <path d="M1261 377L1443 195L1443 91L1417 65" stroke-width="4.33" stroke="rgba(62, 199, 11, 0.15)"></path>
            <path d="M1254.5 377 a6.5 6.5 0 1 0 13 0 a6.5 6.5 0 1 0 -13 0zM1410.5 65 a6.5 6.5 0 1 0 13 0 a6.5 6.5 0 1 0 -13 0z" fill="rgba(62, 199, 11, 0.15)"></path>
            <path d="M1339 507L1391 507L1417 481L1443 481" stroke-width="4.33" stroke="rgba(62, 199, 11, 0.15)"></path>
            <path d="M1332.5 507 a6.5 6.5 0 1 0 13 0 a6.5 6.5 0 1 0 -13 0zM1436.5 481 a6.5 6.5 0 1 0 13 0 a6.5 6.5 0 1 0 -13 0z" fill="rgba(62, 199, 11, 0.15)"></path>
            <path d="M689 221L715 247L741 247" stroke-width="4.33" stroke="rgba(62, 199, 11, 0.15)"></path>
            <path d="M682.5 221 a6.5 6.5 0 1 0 13 0 a6.5 6.5 0 1 0 -13 0zM734.5 247 a6.5 6.5 0 1 0 13 0 a6.5 6.5 0 1 0 -13 0z" fill="rgba(62, 199, 11, 0.15)"></path>
            <path d="M481 91L481 65L507 39L533 39" stroke-width="4.33" stroke="rgba(62, 199, 11, 0.15)"></path>
            <path d="M474.5 91 a6.5 6.5 0 1 0 13 0 a6.5 6.5 0 1 0 -13 0zM526.5 39 a6.5 6.5 0 1 0 13 0 a6.5 6.5 0 1 0 -13 0z" fill="rgba(62, 199, 11, 0.15)"></path>
            <path d="M117 273L65 273L13 221L13 13" stroke-width="4.33" stroke="rgba(62, 199, 11, 0.15)"></path>
            <path d="M110.5 273 a6.5 6.5 0 1 0 13 0 a6.5 6.5 0 1 0 -13 0zM6.5 13 a6.5 6.5 0 1 0 13 0 a6.5 6.5 0 1 0 -13 0z" fill="rgba(62, 199, 11, 0.15)"></path>
            <path d="M169 13L91 13" stroke-width="4.33" stroke="rgba(62, 199, 11, 0.15)"></path>
            <path d="M162.5 13 a6.5 6.5 0 1 0 13 0 a6.5 6.5 0 1 0 -13 0zM84.5 13 a6.5 6.5 0 1 0 13 0 a6.5 6.5 0 1 0 -13 0z" fill="rgba(62, 199, 11, 0.15)"></path>
            <path d="M65 377L169 377L247 299L247 247" stroke-width="4.33" stroke="rgba(62, 199, 11, 0.15)"></path>
            <path d="M58.5 377 a6.5 6.5 0 1 0 13 0 a6.5 6.5 0 1 0 -13 0zM240.5 247 a6.5 6.5 0 1 0 13 0 a6.5 6.5 0 1 0 -13 0z" fill="rgba(62, 199, 11, 0.15)"></path>
            <path d="M1235 351L1261 351L1417 195L1417 117L1391 91" stroke-width="4.33" stroke="rgba(62, 199, 11, 0.15)"></path>
            <path d="M1228.5 351 a6.5 6.5 0 1 0 13 0 a6.5 6.5 0 1 0 -13 0zM1384.5 91 a6.5 6.5 0 1 0 13 0 a6.5 6.5 0 1 0 -13 0z" fill="rgba(62, 199, 11, 0.15)"></path>
            <path d="M559 559L507 507L507 455L533 429L559 429L663 325L715 325" stroke-width="4.33" stroke="rgba(62, 199, 11, 0.15)"></path>
            <path d="M552.5 559 a6.5 6.5 0 1 0 13 0 a6.5 6.5 0 1 0 -13 0zM708.5 325 a6.5 6.5 0 1 0 13 0 a6.5 6.5 0 1 0 -13 0z" fill="rgba(62, 199, 11, 0.15)"></path>
            <path d="M819 221L767 221L715 169L715 143L767 91" stroke-width="4.33" stroke="rgba(62, 199, 11, 0.15)"></path>
            <path d="M812.5 221 a6.5 6.5 0 1 0 13 0 a6.5 6.5 0 1 0 -13 0zM760.5 91 a6.5 6.5 0 1 0 13 0 a6.5 6.5 0 1 0 -13 0z" fill="rgba(62, 199, 11, 0.15)"></path>
            <path d="M429 65L429 13" stroke-width="4.33" stroke="rgba(62, 199, 11, 0.15)"></path>
            <path d="M422.5 65 a6.5 6.5 0 1 0 13 0 a6.5 6.5 0 1 0 -13 0zM422.5 13 a6.5 6.5 0 1 0 13 0 a6.5 6.5 0 1 0 -13 0z" fill="rgba(62, 199, 11, 0.15)"></path>
            <path d="M1339 351L1391 403L1417 403L1443 377L1443 221" stroke-width="4.33" stroke="rgba(62, 199, 11, 0.15)"></path>
            <path d="M1332.5 351 a6.5 6.5 0 1 0 13 0 a6.5 6.5 0 1 0 -13 0zM1436.5 221 a6.5 6.5 0 1 0 13 0 a6.5 6.5 0 1 0 -13 0z" fill="rgba(62, 199, 11, 0.15)"></path>
            <path d="M923 117L975 169L1209 169L1287 91L1313 91L1391 13L1417 13" stroke-width="4.33" stroke="rgba(62, 199, 11, 0.15)"></path>
            <path d="M916.5 117 a6.5 6.5 0 1 0 13 0 a6.5 6.5 0 1 0 -13 0zM1410.5 13 a6.5 6.5 0 1 0 13 0 a6.5 6.5 0 1 0 -13 0z" fill="rgba(62, 199, 11, 0.15)"></path>
            <path d="M1261 403L1209 403L1157 351L1157 325L1183 299L1209 299L1235 325L1261 325L1391 195L1391 117" stroke-width="4.33" stroke="rgba(62, 199, 11, 0.15)"></path>
            <path d="M1254.5 403 a6.5 6.5 0 1 0 13 0 a6.5 6.5 0 1 0 -13 0zM1384.5 117 a6.5 6.5 0 1 0 13 0 a6.5 6.5 0 1 0 -13 0z" fill="rgba(62, 199, 11, 0.15)"></path>
            <path d="M897 91L923 91L1001 13L1365 13" stroke-width="4.33" stroke="rgba(62, 199, 11, 0.15)"></path>
            <path d="M890.5 91 a6.5 6.5 0 1 0 13 0 a6.5 6.5 0 1 0 -13 0zM1358.5 13 a6.5 6.5 0 1 0 13 0 a6.5 6.5 0 1 0 -13 0z" fill="rgba(62, 199, 11, 0.15)"></path>
            <path d="M611 117L585 91L559 91L507 143L507 247" stroke-width="4.33" stroke="rgba(62, 199, 11, 0.15)"></path>
            <path d="M604.5 117 a6.5 6.5 0 1 0 13 0 a6.5 6.5 0 1 0 -13 0zM500.5 247 a6.5 6.5 0 1 0 13 0 a6.5 6.5 0 1 0 -13 0z" fill="rgba(62, 199, 11, 0.15)"></path>
            <path d="M1287 65L1209 143L975 143L949 117L949 91L1001 39L1079 39" stroke-width="4.33" stroke="rgba(62, 199, 11, 0.15)"></path>
            <path d="M1280.5 65 a6.5 6.5 0 1 0 13 0 a6.5 6.5 0 1 0 -13 0zM1072.5 39 a6.5 6.5 0 1 0 13 0 a6.5 6.5 0 1 0 -13 0z" fill="rgba(62, 199, 11, 0.15)"></path>
            <path d="M871 377L715 377L611 481L611 533L637 559" stroke-width="4.33" stroke="rgba(62, 199, 11, 0.15)"></path>
            <path d="M864.5 377 a6.5 6.5 0 1 0 13 0 a6.5 6.5 0 1 0 -13 0zM630.5 559 a6.5 6.5 0 1 0 13 0 a6.5 6.5 0 1 0 -13 0z" fill="rgba(62, 199, 11, 0.15)"></path>
            <path d="M1157 559L1131 533L1027 533L1001 559" stroke-width="4.33" stroke="rgba(62, 199, 11, 0.15)"></path>
            <path d="M1150.5 559 a6.5 6.5 0 1 0 13 0 a6.5 6.5 0 1 0 -13 0zM994.5 559 a6.5 6.5 0 1 0 13 0 a6.5 6.5 0 1 0 -13 0z" fill="rgba(62, 199, 11, 0.15)"></path>
            <path d="M1287 247L1313 247L1365 195L1365 117" stroke-width="4.33" stroke="rgba(62, 199, 11, 0.15)"></path>
            <path d="M1280.5 247 a6.5 6.5 0 1 0 13 0 a6.5 6.5 0 1 0 -13 0zM1358.5 117 a6.5 6.5 0 1 0 13 0 a6.5 6.5 0 1 0 -13 0z" fill="rgba(62, 199, 11, 0.15)"></path>
            <path d="M1053 65L1027 65L975 117" stroke-width="4.33" stroke="rgba(62, 199, 11, 0.15)"></path>
            <path d="M1046.5 65 a6.5 6.5 0 1 0 13 0 a6.5 6.5 0 1 0 -13 0zM968.5 117 a6.5 6.5 0 1 0 13 0 a6.5 6.5 0 1 0 -13 0z" fill="rgba(62, 199, 11, 0.15)"></path>
            <path d="M663 481L819 481L871 429L871 403L897 377L897 351" stroke-width="4.33" stroke="rgba(62, 199, 11, 0.15)"></path>
            <path d="M656.5 481 a6.5 6.5 0 1 0 13 0 a6.5 6.5 0 1 0 -13 0zM890.5 351 a6.5 6.5 0 1 0 13 0 a6.5 6.5 0 1 0 -13 0z" fill="rgba(62, 199, 11, 0.15)"></path>
            <path d="M559 507L559 455L585 429L611 429L689 351" stroke-width="4.33" stroke="rgba(62, 199, 11, 0.15)"></path>
            <path d="M552.5 507 a6.5 6.5 0 1 0 13 0 a6.5 6.5 0 1 0 -13 0zM682.5 351 a6.5 6.5 0 1 0 13 0 a6.5 6.5 0 1 0 -13 0z" fill="rgba(62, 199, 11, 0.15)"></path>
            <path d="M1209 65L1079 65L1027 117L1001 117" stroke-width="4.33" stroke="rgba(62, 199, 11, 0.15)"></path>
            <path d="M1202.5 65 a6.5 6.5 0 1 0 13 0 a6.5 6.5 0 1 0 -13 0zM994.5 117 a6.5 6.5 0 1 0 13 0 a6.5 6.5 0 1 0 -13 0z" fill="rgba(62, 199, 11, 0.15)"></path>
            <path d="M1365 533L1443 533" stroke-width="4.33" stroke="rgba(62, 199, 11, 0.15)"></path>
            <path d="M1358.5 533 a6.5 6.5 0 1 0 13 0 a6.5 6.5 0 1 0 -13 0zM1436.5 533 a6.5 6.5 0 1 0 13 0 a6.5 6.5 0 1 0 -13 0z" fill="rgba(62, 199, 11, 0.15)"></path>
            <path d="M1183 39L1105 39" stroke-width="4.33" stroke="rgba(62, 199, 11, 0.15)"></path>
            <path d="M1176.5 39 a6.5 6.5 0 1 0 13 0 a6.5 6.5 0 1 0 -13 0zM1098.5 39 a6.5 6.5 0 1 0 13 0 a6.5 6.5 0 1 0 -13 0z" fill="rgba(62, 199, 11, 0.15)"></path>
            <path d="M507 325L507 403L455 455L403 455L325 533" stroke-width="4.33" stroke="rgba(62, 199, 11, 0.15)"></path>
            <path d="M500.5 325 a6.5 6.5 0 1 0 13 0 a6.5 6.5 0 1 0 -13 0zM318.5 533 a6.5 6.5 0 1 0 13 0 a6.5 6.5 0 1 0 -13 0z" fill="rgba(62, 199, 11, 0.15)"></path>
            <path d="M1027 559L1131 559" stroke-width="4.33" stroke="rgba(62, 199, 11, 0.15)"></path>
            <path d="M1020.5 559 a6.5 6.5 0 1 0 13 0 a6.5 6.5 0 1 0 -13 0zM1124.5 559 a6.5 6.5 0 1 0 13 0 a6.5 6.5 0 1 0 -13 0z" fill="rgba(62, 199, 11, 0.15)"></path>
            <path d="M1131 429L1131 377" stroke-width="4.33" stroke="rgba(62, 199, 11, 0.15)"></path>
            <path d="M1124.5 429 a6.5 6.5 0 1 0 13 0 a6.5 6.5 0 1 0 -13 0zM1124.5 377 a6.5 6.5 0 1 0 13 0 a6.5 6.5 0 1 0 -13 0z" fill="rgba(62, 199, 11, 0.15)"></path>
            <path d="M1261 221L1313 221L1339 195L1339 143" stroke-width="4.33" stroke="rgba(62, 199, 11, 0.15)"></path>
            <path d="M1254.5 221 a6.5 6.5 0 1 0 13 0 a6.5 6.5 0 1 0 -13 0zM1332.5 143 a6.5 6.5 0 1 0 13 0 a6.5 6.5 0 1 0 -13 0z" fill="rgba(62, 199, 11, 0.15)"></path>
            <path d="M221 455L221 533" stroke-width="4.33" stroke="rgba(62, 199, 11, 0.15)"></path>
            <path d="M214.5 455 a6.5 6.5 0 1 0 13 0 a6.5 6.5 0 1 0 -13 0zM214.5 533 a6.5 6.5 0 1 0 13 0 a6.5 6.5 0 1 0 -13 0z" fill="rgba(62, 199, 11, 0.15)"></path>
            <path d="M689 429L715 429L741 455L819 455L845 429L845 403" stroke-width="4.33" stroke="rgba(62, 199, 11, 0.15)"></path>
            <path d="M682.5 429 a6.5 6.5 0 1 0 13 0 a6.5 6.5 0 1 0 -13 0zM838.5 403 a6.5 6.5 0 1 0 13 0 a6.5 6.5 0 1 0 -13 0z" fill="rgba(62, 199, 11, 0.15)"></path>
            <path d="M195 325L195 299L221 273" stroke-width="4.33" stroke="rgba(62, 199, 11, 0.15)"></path>
            <path d="M188.5 325 a6.5 6.5 0 1 0 13 0 a6.5 6.5 0 1 0 -13 0zM214.5 273 a6.5 6.5 0 1 0 13 0 a6.5 6.5 0 1 0 -13 0z" fill="rgba(62, 199, 11, 0.15)"></path>
            <path d="M1105 377L1053 429" stroke-width="4.33" stroke="rgba(62, 199, 11, 0.15)"></path>
            <path d="M1098.5 377 a6.5 6.5 0 1 0 13 0 a6.5 6.5 0 1 0 -13 0zM1046.5 429 a6.5 6.5 0 1 0 13 0 a6.5 6.5 0 1 0 -13 0z" fill="rgba(62, 199, 11, 0.15)"></path>
            <path d="M1209 39L1235 65L1235 91L1209 117L1157 117" stroke-width="4.33" stroke="rgba(62, 199, 11, 0.15)"></path>
            <path d="M1202.5 39 a6.5 6.5 0 1 0 13 0 a6.5 6.5 0 1 0 -13 0zM1150.5 117 a6.5 6.5 0 1 0 13 0 a6.5 6.5 0 1 0 -13 0z" fill="rgba(62, 199, 11, 0.15)"></path>
            <path d="M1053 117L1079 91L1105 91" stroke-width="4.33" stroke="rgba(62, 199, 11, 0.15)"></path>
            <path d="M1046.5 117 a6.5 6.5 0 1 0 13 0 a6.5 6.5 0 1 0 -13 0zM1098.5 91 a6.5 6.5 0 1 0 13 0 a6.5 6.5 0 1 0 -13 0z" fill="rgba(62, 199, 11, 0.15)"></path>
            <path d="M1261 429L1313 377L1339 377" stroke-width="4.33" stroke="rgba(62, 199, 11, 0.15)"></path>
            <path d="M1254.5 429 a6.5 6.5 0 1 0 13 0 a6.5 6.5 0 1 0 -13 0zM1332.5 377 a6.5 6.5 0 1 0 13 0 a6.5 6.5 0 1 0 -13 0z" fill="rgba(62, 199, 11, 0.15)"></path>
            <path d="M221 403L143 481L117 481" stroke-width="4.33" stroke="rgba(62, 199, 11, 0.15)"></path>
            <path d="M214.5 403 a6.5 6.5 0 1 0 13 0 a6.5 6.5 0 1 0 -13 0zM110.5 481 a6.5 6.5 0 1 0 13 0 a6.5 6.5 0 1 0 -13 0z" fill="rgba(62, 199, 11, 0.15)"></path>
            <path d="M299 377L273 403L273 533" stroke-width="4.33" stroke="rgba(62, 199, 11, 0.15)"></path>
            <path d="M292.5 377 a6.5 6.5 0 1 0 13 0 a6.5 6.5 0 1 0 -13 0zM266.5 533 a6.5 6.5 0 1 0 13 0 a6.5 6.5 0 1 0 -13 0z" fill="rgba(62, 199, 11, 0.15)"></path>
            <path d="M429 273L403 273L325 351L325 481L299 507" stroke-width="4.33" stroke="rgba(62, 199, 11, 0.15)"></path>
            <path d="M422.5 273 a6.5 6.5 0 1 0 13 0 a6.5 6.5 0 1 0 -13 0zM292.5 507 a6.5 6.5 0 1 0 13 0 a6.5 6.5 0 1 0 -13 0z" fill="rgba(62, 199, 11, 0.15)"></path>
            <path d="M1417 325L1417 247" stroke-width="4.33" stroke="rgba(62, 199, 11, 0.15)"></path>
            <path d="M1410.5 325 a6.5 6.5 0 1 0 13 0 a6.5 6.5 0 1 0 -13 0zM1410.5 247 a6.5 6.5 0 1 0 13 0 a6.5 6.5 0 1 0 -13 0z" fill="rgba(62, 199, 11, 0.15)"></path>
            <path d="M377 403L403 377L403 299" stroke-width="4.33" stroke="rgba(62, 199, 11, 0.15)"></path>
            <path d="M370.5 403 a6.5 6.5 0 1 0 13 0 a6.5 6.5 0 1 0 -13 0zM396.5 299 a6.5 6.5 0 1 0 13 0 a6.5 6.5 0 1 0 -13 0z" fill="rgba(62, 199, 11, 0.15)"></path>
            <path d="M741 65L611 65" stroke-width="4.33" stroke="rgba(62, 199, 11, 0.15)"></path>
            <path d="M734.5 65 a6.5 6.5 0 1 0 13 0 a6.5 6.5 0 1 0 -13 0zM604.5 65 a6.5 6.5 0 1 0 13 0 a6.5 6.5 0 1 0 -13 0z" fill="rgba(62, 199, 11, 0.15)"></path>
            <path d="M351 533L377 533L429 481" stroke-width="4.33" stroke="rgba(62, 199, 11, 0.15)"></path>
            <path d="M344.5 533 a6.5 6.5 0 1 0 13 0 a6.5 6.5 0 1 0 -13 0zM422.5 481 a6.5 6.5 0 1 0 13 0 a6.5 6.5 0 1 0 -13 0z" fill="rgba(62, 199, 11, 0.15)"></path>
            <path d="M481 403L455 403L429 429" stroke-width="4.33" stroke="rgba(62, 199, 11, 0.15)"></path>
            <path d="M474.5 403 a6.5 6.5 0 1 0 13 0 a6.5 6.5 0 1 0 -13 0zM422.5 429 a6.5 6.5 0 1 0 13 0 a6.5 6.5 0 1 0 -13 0z" fill="rgba(62, 199, 11, 0.15)"></path>
            <path d="M793 429L741 429L715 403" stroke-width="4.33" stroke="rgba(62, 199, 11, 0.15)"></path>
            <path d="M786.5 429 a6.5 6.5 0 1 0 13 0 a6.5 6.5 0 1 0 -13 0zM708.5 403 a6.5 6.5 0 1 0 13 0 a6.5 6.5 0 1 0 -13 0z" fill="rgba(62, 199, 11, 0.15)"></path>
            <path d="M91 221L117 247L143 247" stroke-width="4.33" stroke="rgba(62, 199, 11, 0.15)"></path>
            <path d="M84.5 221 a6.5 6.5 0 1 0 13 0 a6.5 6.5 0 1 0 -13 0zM136.5 247 a6.5 6.5 0 1 0 13 0 a6.5 6.5 0 1 0 -13 0z" fill="rgba(62, 199, 11, 0.15)"></path>
            <path d="M91 117L91 195L65 221L39 221" stroke-width="4.33" stroke="rgba(62, 199, 11, 0.15)"></path>
            <path d="M84.5 117 a6.5 6.5 0 1 0 13 0 a6.5 6.5 0 1 0 -13 0zM32.5 221 a6.5 6.5 0 1 0 13 0 a6.5 6.5 0 1 0 -13 0z" fill="rgba(62, 199, 11, 0.15)"></path>
            <path d="M117 429L91 403L13 403" stroke-width="4.33" stroke="rgba(62, 199, 11, 0.15)"></path>
            <path d="M110.5 429 a6.5 6.5 0 1 0 13 0 a6.5 6.5 0 1 0 -13 0zM6.5 403 a6.5 6.5 0 1 0 13 0 a6.5 6.5 0 1 0 -13 0z" fill="rgba(62, 199, 11, 0.15)"></path>
            <path d="M429 143L455 117L455 91" stroke-width="4.33" stroke="rgba(62, 199, 11, 0.15)"></path>
            <path d="M422.5 143 a6.5 6.5 0 1 0 13 0 a6.5 6.5 0 1 0 -13 0zM448.5 91 a6.5 6.5 0 1 0 13 0 a6.5 6.5 0 1 0 -13 0z" fill="rgba(62, 199, 11, 0.15)"></path>
            <path d="M195 143L221 117L221 91" stroke-width="4.33" stroke="rgba(62, 199, 11, 0.15)"></path>
            <path d="M188.5 143 a6.5 6.5 0 1 0 13 0 a6.5 6.5 0 1 0 -13 0zM214.5 91 a6.5 6.5 0 1 0 13 0 a6.5 6.5 0 1 0 -13 0z" fill="rgba(62, 199, 11, 0.15)"></path>
            <path d="M689 533L637 481" stroke-width="4.33" stroke="rgba(62, 199, 11, 0.15)"></path>
            <path d="M682.5 533 a6.5 6.5 0 1 0 13 0 a6.5 6.5 0 1 0 -13 0zM630.5 481 a6.5 6.5 0 1 0 13 0 a6.5 6.5 0 1 0 -13 0z" fill="rgba(62, 199, 11, 0.15)"></path>
            <path d="M65 195L39 169L39 91L65 65" stroke-width="4.33" stroke="rgba(62, 199, 11, 0.15)"></path>
            <path d="M58.5 195 a6.5 6.5 0 1 0 13 0 a6.5 6.5 0 1 0 -13 0zM58.5 65 a6.5 6.5 0 1 0 13 0 a6.5 6.5 0 1 0 -13 0z" fill="rgba(62, 199, 11, 0.15)"></path>
            <path d="M1027 221L1105 221" stroke-width="4.33" stroke="rgba(62, 199, 11, 0.15)"></path>
            <path d="M1020.5 221 a6.5 6.5 0 1 0 13 0 a6.5 6.5 0 1 0 -13 0zM1098.5 221 a6.5 6.5 0 1 0 13 0 a6.5 6.5 0 1 0 -13 0z" fill="rgba(62, 199, 11, 0.15)"></path>
            <path d="M247 507L247 455" stroke-width="4.33" stroke="rgba(62, 199, 11, 0.15)"></path>
            <path d="M240.5 507 a6.5 6.5 0 1 0 13 0 a6.5 6.5 0 1 0 -13 0zM240.5 455 a6.5 6.5 0 1 0 13 0 a6.5 6.5 0 1 0 -13 0z" fill="rgba(62, 199, 11, 0.15)"></path>
            <path d="M715 39L611 39" stroke-width="4.33" stroke="rgba(62, 199, 11, 0.15)"></path>
            <path d="M708.5 39 a6.5 6.5 0 1 0 13 0 a6.5 6.5 0 1 0 -13 0zM604.5 39 a6.5 6.5 0 1 0 13 0 a6.5 6.5 0 1 0 -13 0z" fill="rgba(62, 199, 11, 0.15)"></path>
            <path d="M169 143L169 195" stroke-width="4.33" stroke="rgba(62, 199, 11, 0.15)"></path>
            <path d="M162.5 143 a6.5 6.5 0 1 0 13 0 a6.5 6.5 0 1 0 -13 0zM162.5 195 a6.5 6.5 0 1 0 13 0 a6.5 6.5 0 1 0 -13 0z" fill="rgba(62, 199, 11, 0.15)"></path>
            <path d="M793 533L767 507L715 507" stroke-width="4.33" stroke="rgba(62, 199, 11, 0.15)"></path>
            <path d="M786.5 533 a6.5 6.5 0 1 0 13 0 a6.5 6.5 0 1 0 -13 0zM708.5 507 a6.5 6.5 0 1 0 13 0 a6.5 6.5 0 1 0 -13 0z" fill="rgba(62, 199, 11, 0.15)"></path>
            <path d="M871 481L845 481L819 507L819 533" stroke-width="4.33" stroke="rgba(62, 199, 11, 0.15)"></path>
            <path d="M864.5 481 a6.5 6.5 0 1 0 13 0 a6.5 6.5 0 1 0 -13 0zM812.5 533 a6.5 6.5 0 1 0 13 0 a6.5 6.5 0 1 0 -13 0z" fill="rgba(62, 199, 11, 0.15)"></path>
            <path d="M1079 273L1053 273L1027 247" stroke-width="4.33" stroke="rgba(62, 199, 11, 0.15)"></path>
            <path d="M1072.5 273 a6.5 6.5 0 1 0 13 0 a6.5 6.5 0 1 0 -13 0zM1020.5 247 a6.5 6.5 0 1 0 13 0 a6.5 6.5 0 1 0 -13 0z" fill="rgba(62, 199, 11, 0.15)"></path>
            <path d="M1313 559L1443 559" stroke-width="4.33" stroke="rgba(62, 199, 11, 0.15)"></path>
            <path d="M1306.5 559 a6.5 6.5 0 1 0 13 0 a6.5 6.5 0 1 0 -13 0zM1436.5 559 a6.5 6.5 0 1 0 13 0 a6.5 6.5 0 1 0 -13 0z" fill="rgba(62, 199, 11, 0.15)"></path>
            <path d="M1105 429L1105 455L1131 481" stroke-width="4.33" stroke="rgba(62, 199, 11, 0.15)"></path>
            <path d="M1098.5 429 a6.5 6.5 0 1 0 13 0 a6.5 6.5 0 1 0 -13 0zM1124.5 481 a6.5 6.5 0 1 0 13 0 a6.5 6.5 0 1 0 -13 0z" fill="rgba(62, 199, 11, 0.15)"></path>
            <path d="M585 325L533 325" stroke-width="4.33" stroke="rgba(62, 199, 11, 0.15)"></path>
            <path d="M578.5 325 a6.5 6.5 0 1 0 13 0 a6.5 6.5 0 1 0 -13 0zM526.5 325 a6.5 6.5 0 1 0 13 0 a6.5 6.5 0 1 0 -13 0z" fill="rgba(62, 199, 11, 0.15)"></path>
            <path d="M169 91L143 65L143 39" stroke-width="4.33" stroke="rgba(62, 199, 11, 0.15)"></path>
            <path d="M162.5 91 a6.5 6.5 0 1 0 13 0 a6.5 6.5 0 1 0 -13 0zM136.5 39 a6.5 6.5 0 1 0 13 0 a6.5 6.5 0 1 0 -13 0z" fill="rgba(62, 199, 11, 0.15)"></path>
            <path d="M195 13L195 39L169 65" stroke-width="4.33" stroke="rgba(62, 199, 11, 0.15)"></path>
            <path d="M188.5 13 a6.5 6.5 0 1 0 13 0 a6.5 6.5 0 1 0 -13 0zM162.5 65 a6.5 6.5 0 1 0 13 0 a6.5 6.5 0 1 0 -13 0z" fill="rgba(62, 199, 11, 0.15)"></path>
            <path d="M1105 247L1053 247" stroke-width="4.33" stroke="rgba(62, 199, 11, 0.15)"></path>
            <path d="M1098.5 247 a6.5 6.5 0 1 0 13 0 a6.5 6.5 0 1 0 -13 0zM1046.5 247 a6.5 6.5 0 1 0 13 0 a6.5 6.5 0 1 0 -13 0z" fill="rgba(62, 199, 11, 0.15)"></path>
            <path d="M949 403L1001 403" stroke-width="4.33" stroke="rgba(62, 199, 11, 0.15)"></path>
            <path d="M942.5 403 a6.5 6.5 0 1 0 13 0 a6.5 6.5 0 1 0 -13 0zM994.5 403 a6.5 6.5 0 1 0 13 0 a6.5 6.5 0 1 0 -13 0z" fill="rgba(62, 199, 11, 0.15)"></path>
            <path d="M611 247L611 143L585 117L559 117L533 143L533 221" stroke-width="4.33" stroke="rgba(62, 199, 11, 0.15)"></path>
            <path d="M604.5 247 a6.5 6.5 0 1 0 13 0 a6.5 6.5 0 1 0 -13 0zM526.5 221 a6.5 6.5 0 1 0 13 0 a6.5 6.5 0 1 0 -13 0z" fill="rgba(62, 199, 11, 0.15)"></path>
            <path d="M637 169L637 247" stroke-width="4.33" stroke="rgba(62, 199, 11, 0.15)"></path>
            <path d="M630.5 169 a6.5 6.5 0 1 0 13 0 a6.5 6.5 0 1 0 -13 0zM630.5 247 a6.5 6.5 0 1 0 13 0 a6.5 6.5 0 1 0 -13 0z" fill="rgba(62, 199, 11, 0.15)"></path>
            <path d="M559 143L585 169L585 247" stroke-width="4.33" stroke="rgba(62, 199, 11, 0.15)"></path>
            <path d="M552.5 143 a6.5 6.5 0 1 0 13 0 a6.5 6.5 0 1 0 -13 0zM578.5 247 a6.5 6.5 0 1 0 13 0 a6.5 6.5 0 1 0 -13 0z" fill="rgba(62, 199, 11, 0.15)"></path>
            <path d="M949 247L923 221L923 195" stroke-width="4.33" stroke="rgba(62, 199, 11, 0.15)"></path>
            <path d="M942.5 247 a6.5 6.5 0 1 0 13 0 a6.5 6.5 0 1 0 -13 0zM916.5 195 a6.5 6.5 0 1 0 13 0 a6.5 6.5 0 1 0 -13 0z" fill="rgba(62, 199, 11, 0.15)"></path>
            <path d="M377 429L351 403L351 351" stroke-width="4.33" stroke="rgba(62, 199, 11, 0.15)"></path>
            <path d="M370.5 429 a6.5 6.5 0 1 0 13 0 a6.5 6.5 0 1 0 -13 0zM344.5 351 a6.5 6.5 0 1 0 13 0 a6.5 6.5 0 1 0 -13 0z" fill="rgba(62, 199, 11, 0.15)"></path>
            <path d="M949 13L767 13" stroke-width="4.33" stroke="rgba(62, 199, 11, 0.15)"></path>
            <path d="M942.5 13 a6.5 6.5 0 1 0 13 0 a6.5 6.5 0 1 0 -13 0zM760.5 13 a6.5 6.5 0 1 0 13 0 a6.5 6.5 0 1 0 -13 0z" fill="rgba(62, 199, 11, 0.15)"></path>
            <path d="M871 39L949 39" stroke-width="4.33" stroke="rgba(62, 199, 11, 0.15)"></path>
            <path d="M864.5 39 a6.5 6.5 0 1 0 13 0 a6.5 6.5 0 1 0 -13 0zM942.5 39 a6.5 6.5 0 1 0 13 0 a6.5 6.5 0 1 0 -13 0z" fill="rgba(62, 199, 11, 0.15)"></path>
            <path d="M715 455L663 455" stroke-width="4.33" stroke="rgba(62, 199, 11, 0.15)"></path>
            <path d="M708.5 455 a6.5 6.5 0 1 0 13 0 a6.5 6.5 0 1 0 -13 0zM656.5 455 a6.5 6.5 0 1 0 13 0 a6.5 6.5 0 1 0 -13 0z" fill="rgba(62, 199, 11, 0.15)"></path>
            <path d="M819 403L741 403" stroke-width="4.33" stroke="rgba(62, 199, 11, 0.15)"></path>
            <path d="M812.5 403 a6.5 6.5 0 1 0 13 0 a6.5 6.5 0 1 0 -13 0zM734.5 403 a6.5 6.5 0 1 0 13 0 a6.5 6.5 0 1 0 -13 0z" fill="rgba(62, 199, 11, 0.15)"></path>
            <path d="M481 559L455 533L429 533L403 559" stroke-width="4.33" stroke="rgba(62, 199, 11, 0.15)"></path>
            <path d="M474.5 559 a6.5 6.5 0 1 0 13 0 a6.5 6.5 0 1 0 -13 0zM396.5 559 a6.5 6.5 0 1 0 13 0 a6.5 6.5 0 1 0 -13 0z" fill="rgba(62, 199, 11, 0.15)"></path>
            <path d="M975 247L975 273L949 299" stroke-width="4.33" stroke="rgba(62, 199, 11, 0.15)"></path>
            <path d="M968.5 247 a6.5 6.5 0 1 0 13 0 a6.5 6.5 0 1 0 -13 0zM942.5 299 a6.5 6.5 0 1 0 13 0 a6.5 6.5 0 1 0 -13 0z" fill="rgba(62, 199, 11, 0.15)"></path>
            <path d="M845 221L845 195L819 169" stroke-width="4.33" stroke="rgba(62, 199, 11, 0.15)"></path>
            <path d="M838.5 221 a6.5 6.5 0 1 0 13 0 a6.5 6.5 0 1 0 -13 0zM812.5 169 a6.5 6.5 0 1 0 13 0 a6.5 6.5 0 1 0 -13 0z" fill="rgba(62, 199, 11, 0.15)"></path>
            <path d="M299 455L299 403" stroke-width="4.33" stroke="rgba(62, 199, 11, 0.15)"></path>
            <path d="M292.5 455 a6.5 6.5 0 1 0 13 0 a6.5 6.5 0 1 0 -13 0zM292.5 403 a6.5 6.5 0 1 0 13 0 a6.5 6.5 0 1 0 -13 0z" fill="rgba(62, 199, 11, 0.15)"></path>
        </g>
    </g>
    <defs>
        <mask id="SvgjsMask1009">
            <rect width="1440" height="560" fill="#ffffff"></rect>
        </mask>
        <mask id="SvgjsMask1010">
            <rect width="1440" height="560" fill="white"></rect>
            <path d="M243.75 221 a3.25 3.25 0 1 0 6.5 0 a3.25 3.25 0 1 0 -6.5 0zM9.75 351 a3.25 3.25 0 1 0 6.5 0 a3.25 3.25 0 1 0 -6.5 0z" fill="black"></path>
            <path d="M997.75 273 a3.25 3.25 0 1 0 6.5 0 a3.25 3.25 0 1 0 -6.5 0zM607.75 559 a3.25 3.25 0 1 0 6.5 0 a3.25 3.25 0 1 0 -6.5 0z" fill="black"></path>
            <path d="M477.75 351 a3.25 3.25 0 1 0 6.5 0 a3.25 3.25 0 1 0 -6.5 0zM9.75 455 a3.25 3.25 0 1 0 6.5 0 a3.25 3.25 0 1 0 -6.5 0z" fill="black"></path>
            <path d="M35.75 65 a3.25 3.25 0 1 0 6.5 0 a3.25 3.25 0 1 0 -6.5 0zM35.75 13 a3.25 3.25 0 1 0 6.5 0 a3.25 3.25 0 1 0 -6.5 0z" fill="black"></path>
            <path d="M971.75 533 a3.25 3.25 0 1 0 6.5 0 a3.25 3.25 0 1 0 -6.5 0zM1439.75 455 a3.25 3.25 0 1 0 6.5 0 a3.25 3.25 0 1 0 -6.5 0z" fill="black"></path>
            <path d="M659.75 559 a3.25 3.25 0 1 0 6.5 0 a3.25 3.25 0 1 0 -6.5 0zM919.75 351 a3.25 3.25 0 1 0 6.5 0 a3.25 3.25 0 1 0 -6.5 0z" fill="black"></path>
            <path d="M919.75 299 a3.25 3.25 0 1 0 6.5 0 a3.25 3.25 0 1 0 -6.5 0zM425.75 351 a3.25 3.25 0 1 0 6.5 0 a3.25 3.25 0 1 0 -6.5 0z" fill="black"></path>
            <path d="M321.75 195 a3.25 3.25 0 1 0 6.5 0 a3.25 3.25 0 1 0 -6.5 0zM815.75 117 a3.25 3.25 0 1 0 6.5 0 a3.25 3.25 0 1 0 -6.5 0z" fill="black"></path>
            <path d="M373.75 65 a3.25 3.25 0 1 0 6.5 0 a3.25 3.25 0 1 0 -6.5 0zM9.75 325 a3.25 3.25 0 1 0 6.5 0 a3.25 3.25 0 1 0 -6.5 0z" fill="black"></path>
            <path d="M789.75 65 a3.25 3.25 0 1 0 6.5 0 a3.25 3.25 0 1 0 -6.5 0zM555.75 273 a3.25 3.25 0 1 0 6.5 0 a3.25 3.25 0 1 0 -6.5 0z" fill="black"></path>
            <path d="M1335.75 403 a3.25 3.25 0 1 0 6.5 0 a3.25 3.25 0 1 0 -6.5 0zM1179.75 533 a3.25 3.25 0 1 0 6.5 0 a3.25 3.25 0 1 0 -6.5 0z" fill="black"></path>
            <path d="M1101.75 507 a3.25 3.25 0 1 0 6.5 0 a3.25 3.25 0 1 0 -6.5 0zM1127.75 221 a3.25 3.25 0 1 0 6.5 0 a3.25 3.25 0 1 0 -6.5 0z" fill="black"></path>
            <path d="M867.75 117 a3.25 3.25 0 1 0 6.5 0 a3.25 3.25 0 1 0 -6.5 0zM1075.75 325 a3.25 3.25 0 1 0 6.5 0 a3.25 3.25 0 1 0 -6.5 0z" fill="black"></path>
            <path d="M295.75 247 a3.25 3.25 0 1 0 6.5 0 a3.25 3.25 0 1 0 -6.5 0zM399.75 13 a3.25 3.25 0 1 0 6.5 0 a3.25 3.25 0 1 0 -6.5 0z" fill="black"></path>
            <path d="M555.75 39 a3.25 3.25 0 1 0 6.5 0 a3.25 3.25 0 1 0 -6.5 0zM61.75 507 a3.25 3.25 0 1 0 6.5 0 a3.25 3.25 0 1 0 -6.5 0z" fill="black"></path>
            <path d="M581.75 39 a3.25 3.25 0 1 0 6.5 0 a3.25 3.25 0 1 0 -6.5 0zM841.75 247 a3.25 3.25 0 1 0 6.5 0 a3.25 3.25 0 1 0 -6.5 0z" fill="black"></path>
            <path d="M1231.75 455 a3.25 3.25 0 1 0 6.5 0 a3.25 3.25 0 1 0 -6.5 0zM1309.75 455 a3.25 3.25 0 1 0 6.5 0 a3.25 3.25 0 1 0 -6.5 0z" fill="black"></path>
            <path d="M555.75 169 a3.25 3.25 0 1 0 6.5 0 a3.25 3.25 0 1 0 -6.5 0zM425.75 195 a3.25 3.25 0 1 0 6.5 0 a3.25 3.25 0 1 0 -6.5 0z" fill="black"></path>
            <path d="M269.75 39 a3.25 3.25 0 1 0 6.5 0 a3.25 3.25 0 1 0 -6.5 0zM9.75 299 a3.25 3.25 0 1 0 6.5 0 a3.25 3.25 0 1 0 -6.5 0z" fill="black"></path>
            <path d="M1439.75 13 a3.25 3.25 0 1 0 6.5 0 a3.25 3.25 0 1 0 -6.5 0zM1153.75 247 a3.25 3.25 0 1 0 6.5 0 a3.25 3.25 0 1 0 -6.5 0z" fill="black"></path>
            <path d="M113.75 91 a3.25 3.25 0 1 0 6.5 0 a3.25 3.25 0 1 0 -6.5 0zM61.75 13 a3.25 3.25 0 1 0 6.5 0 a3.25 3.25 0 1 0 -6.5 0z" fill="black"></path>
            <path d="M269.75 273 a3.25 3.25 0 1 0 6.5 0 a3.25 3.25 0 1 0 -6.5 0zM269.75 195 a3.25 3.25 0 1 0 6.5 0 a3.25 3.25 0 1 0 -6.5 0z" fill="black"></path>
            <path d="M893.75 273 a3.25 3.25 0 1 0 6.5 0 a3.25 3.25 0 1 0 -6.5 0zM893.75 169 a3.25 3.25 0 1 0 6.5 0 a3.25 3.25 0 1 0 -6.5 0z" fill="black"></path>
            <path d="M321.75 13 a3.25 3.25 0 1 0 6.5 0 a3.25 3.25 0 1 0 -6.5 0zM295.75 117 a3.25 3.25 0 1 0 6.5 0 a3.25 3.25 0 1 0 -6.5 0z" fill="black"></path>
            <path d="M139.75 507 a3.25 3.25 0 1 0 6.5 0 a3.25 3.25 0 1 0 -6.5 0zM477.75 273 a3.25 3.25 0 1 0 6.5 0 a3.25 3.25 0 1 0 -6.5 0z" fill="black"></path>
            <path d="M945.75 377 a3.25 3.25 0 1 0 6.5 0 a3.25 3.25 0 1 0 -6.5 0zM945.75 351 a3.25 3.25 0 1 0 6.5 0 a3.25 3.25 0 1 0 -6.5 0z" fill="black"></path>
            <path d="M477.75 195 a3.25 3.25 0 1 0 6.5 0 a3.25 3.25 0 1 0 -6.5 0zM555.75 65 a3.25 3.25 0 1 0 6.5 0 a3.25 3.25 0 1 0 -6.5 0z" fill="black"></path>
            <path d="M243.75 377 a3.25 3.25 0 1 0 6.5 0 a3.25 3.25 0 1 0 -6.5 0zM347.75 273 a3.25 3.25 0 1 0 6.5 0 a3.25 3.25 0 1 0 -6.5 0z" fill="black"></path>
            <path d="M1153.75 403 a3.25 3.25 0 1 0 6.5 0 a3.25 3.25 0 1 0 -6.5 0zM1153.75 507 a3.25 3.25 0 1 0 6.5 0 a3.25 3.25 0 1 0 -6.5 0z" fill="black"></path>
            <path d="M1439.75 403 a3.25 3.25 0 1 0 6.5 0 a3.25 3.25 0 1 0 -6.5 0zM1361.75 429 a3.25 3.25 0 1 0 6.5 0 a3.25 3.25 0 1 0 -6.5 0z" fill="black"></path>
            <path d="M607.75 325 a3.25 3.25 0 1 0 6.5 0 a3.25 3.25 0 1 0 -6.5 0zM295.75 559 a3.25 3.25 0 1 0 6.5 0 a3.25 3.25 0 1 0 -6.5 0z" fill="black"></path>
            <path d="M1335.75 91 a3.25 3.25 0 1 0 6.5 0 a3.25 3.25 0 1 0 -6.5 0zM841.75 65 a3.25 3.25 0 1 0 6.5 0 a3.25 3.25 0 1 0 -6.5 0z" fill="black"></path>
            <path d="M1231.75 299 a3.25 3.25 0 1 0 6.5 0 a3.25 3.25 0 1 0 -6.5 0zM997.75 481 a3.25 3.25 0 1 0 6.5 0 a3.25 3.25 0 1 0 -6.5 0z" fill="black"></path>
            <path d="M1127.75 351 a3.25 3.25 0 1 0 6.5 0 a3.25 3.25 0 1 0 -6.5 0zM1179.75 507 a3.25 3.25 0 1 0 6.5 0 a3.25 3.25 0 1 0 -6.5 0z" fill="black"></path>
            <path d="M243.75 13 a3.25 3.25 0 1 0 6.5 0 a3.25 3.25 0 1 0 -6.5 0zM243.75 117 a3.25 3.25 0 1 0 6.5 0 a3.25 3.25 0 1 0 -6.5 0z" fill="black"></path>
            <path d="M1257.75 377 a3.25 3.25 0 1 0 6.5 0 a3.25 3.25 0 1 0 -6.5 0zM1413.75 65 a3.25 3.25 0 1 0 6.5 0 a3.25 3.25 0 1 0 -6.5 0z" fill="black"></path>
            <path d="M1335.75 507 a3.25 3.25 0 1 0 6.5 0 a3.25 3.25 0 1 0 -6.5 0zM1439.75 481 a3.25 3.25 0 1 0 6.5 0 a3.25 3.25 0 1 0 -6.5 0z" fill="black"></path>
            <path d="M685.75 221 a3.25 3.25 0 1 0 6.5 0 a3.25 3.25 0 1 0 -6.5 0zM737.75 247 a3.25 3.25 0 1 0 6.5 0 a3.25 3.25 0 1 0 -6.5 0z" fill="black"></path>
            <path d="M477.75 91 a3.25 3.25 0 1 0 6.5 0 a3.25 3.25 0 1 0 -6.5 0zM529.75 39 a3.25 3.25 0 1 0 6.5 0 a3.25 3.25 0 1 0 -6.5 0z" fill="black"></path>
            <path d="M113.75 273 a3.25 3.25 0 1 0 6.5 0 a3.25 3.25 0 1 0 -6.5 0zM9.75 13 a3.25 3.25 0 1 0 6.5 0 a3.25 3.25 0 1 0 -6.5 0z" fill="black"></path>
            <path d="M165.75 13 a3.25 3.25 0 1 0 6.5 0 a3.25 3.25 0 1 0 -6.5 0zM87.75 13 a3.25 3.25 0 1 0 6.5 0 a3.25 3.25 0 1 0 -6.5 0z" fill="black"></path>
            <path d="M61.75 377 a3.25 3.25 0 1 0 6.5 0 a3.25 3.25 0 1 0 -6.5 0zM243.75 247 a3.25 3.25 0 1 0 6.5 0 a3.25 3.25 0 1 0 -6.5 0z" fill="black"></path>
            <path d="M1231.75 351 a3.25 3.25 0 1 0 6.5 0 a3.25 3.25 0 1 0 -6.5 0zM1387.75 91 a3.25 3.25 0 1 0 6.5 0 a3.25 3.25 0 1 0 -6.5 0z" fill="black"></path>
            <path d="M555.75 559 a3.25 3.25 0 1 0 6.5 0 a3.25 3.25 0 1 0 -6.5 0zM711.75 325 a3.25 3.25 0 1 0 6.5 0 a3.25 3.25 0 1 0 -6.5 0z" fill="black"></path>
            <path d="M815.75 221 a3.25 3.25 0 1 0 6.5 0 a3.25 3.25 0 1 0 -6.5 0zM763.75 91 a3.25 3.25 0 1 0 6.5 0 a3.25 3.25 0 1 0 -6.5 0z" fill="black"></path>
            <path d="M425.75 65 a3.25 3.25 0 1 0 6.5 0 a3.25 3.25 0 1 0 -6.5 0zM425.75 13 a3.25 3.25 0 1 0 6.5 0 a3.25 3.25 0 1 0 -6.5 0z" fill="black"></path>
            <path d="M1335.75 351 a3.25 3.25 0 1 0 6.5 0 a3.25 3.25 0 1 0 -6.5 0zM1439.75 221 a3.25 3.25 0 1 0 6.5 0 a3.25 3.25 0 1 0 -6.5 0z" fill="black"></path>
            <path d="M919.75 117 a3.25 3.25 0 1 0 6.5 0 a3.25 3.25 0 1 0 -6.5 0zM1413.75 13 a3.25 3.25 0 1 0 6.5 0 a3.25 3.25 0 1 0 -6.5 0z" fill="black"></path>
            <path d="M1257.75 403 a3.25 3.25 0 1 0 6.5 0 a3.25 3.25 0 1 0 -6.5 0zM1387.75 117 a3.25 3.25 0 1 0 6.5 0 a3.25 3.25 0 1 0 -6.5 0z" fill="black"></path>
            <path d="M893.75 91 a3.25 3.25 0 1 0 6.5 0 a3.25 3.25 0 1 0 -6.5 0zM1361.75 13 a3.25 3.25 0 1 0 6.5 0 a3.25 3.25 0 1 0 -6.5 0z" fill="black"></path>
            <path d="M607.75 117 a3.25 3.25 0 1 0 6.5 0 a3.25 3.25 0 1 0 -6.5 0zM503.75 247 a3.25 3.25 0 1 0 6.5 0 a3.25 3.25 0 1 0 -6.5 0z" fill="black"></path>
            <path d="M1283.75 65 a3.25 3.25 0 1 0 6.5 0 a3.25 3.25 0 1 0 -6.5 0zM1075.75 39 a3.25 3.25 0 1 0 6.5 0 a3.25 3.25 0 1 0 -6.5 0z" fill="black"></path>
            <path d="M867.75 377 a3.25 3.25 0 1 0 6.5 0 a3.25 3.25 0 1 0 -6.5 0zM633.75 559 a3.25 3.25 0 1 0 6.5 0 a3.25 3.25 0 1 0 -6.5 0z" fill="black"></path>
            <path d="M1153.75 559 a3.25 3.25 0 1 0 6.5 0 a3.25 3.25 0 1 0 -6.5 0zM997.75 559 a3.25 3.25 0 1 0 6.5 0 a3.25 3.25 0 1 0 -6.5 0z" fill="black"></path>
            <path d="M1283.75 247 a3.25 3.25 0 1 0 6.5 0 a3.25 3.25 0 1 0 -6.5 0zM1361.75 117 a3.25 3.25 0 1 0 6.5 0 a3.25 3.25 0 1 0 -6.5 0z" fill="black"></path>
            <path d="M1049.75 65 a3.25 3.25 0 1 0 6.5 0 a3.25 3.25 0 1 0 -6.5 0zM971.75 117 a3.25 3.25 0 1 0 6.5 0 a3.25 3.25 0 1 0 -6.5 0z" fill="black"></path>
            <path d="M659.75 481 a3.25 3.25 0 1 0 6.5 0 a3.25 3.25 0 1 0 -6.5 0zM893.75 351 a3.25 3.25 0 1 0 6.5 0 a3.25 3.25 0 1 0 -6.5 0z" fill="black"></path>
            <path d="M555.75 507 a3.25 3.25 0 1 0 6.5 0 a3.25 3.25 0 1 0 -6.5 0zM685.75 351 a3.25 3.25 0 1 0 6.5 0 a3.25 3.25 0 1 0 -6.5 0z" fill="black"></path>
            <path d="M1205.75 65 a3.25 3.25 0 1 0 6.5 0 a3.25 3.25 0 1 0 -6.5 0zM997.75 117 a3.25 3.25 0 1 0 6.5 0 a3.25 3.25 0 1 0 -6.5 0z" fill="black"></path>
            <path d="M1361.75 533 a3.25 3.25 0 1 0 6.5 0 a3.25 3.25 0 1 0 -6.5 0zM1439.75 533 a3.25 3.25 0 1 0 6.5 0 a3.25 3.25 0 1 0 -6.5 0z" fill="black"></path>
            <path d="M1179.75 39 a3.25 3.25 0 1 0 6.5 0 a3.25 3.25 0 1 0 -6.5 0zM1101.75 39 a3.25 3.25 0 1 0 6.5 0 a3.25 3.25 0 1 0 -6.5 0z" fill="black"></path>
            <path d="M503.75 325 a3.25 3.25 0 1 0 6.5 0 a3.25 3.25 0 1 0 -6.5 0zM321.75 533 a3.25 3.25 0 1 0 6.5 0 a3.25 3.25 0 1 0 -6.5 0z" fill="black"></path>
            <path d="M1023.75 559 a3.25 3.25 0 1 0 6.5 0 a3.25 3.25 0 1 0 -6.5 0zM1127.75 559 a3.25 3.25 0 1 0 6.5 0 a3.25 3.25 0 1 0 -6.5 0z" fill="black"></path>
            <path d="M1127.75 429 a3.25 3.25 0 1 0 6.5 0 a3.25 3.25 0 1 0 -6.5 0zM1127.75 377 a3.25 3.25 0 1 0 6.5 0 a3.25 3.25 0 1 0 -6.5 0z" fill="black"></path>
            <path d="M1257.75 221 a3.25 3.25 0 1 0 6.5 0 a3.25 3.25 0 1 0 -6.5 0zM1335.75 143 a3.25 3.25 0 1 0 6.5 0 a3.25 3.25 0 1 0 -6.5 0z" fill="black"></path>
            <path d="M217.75 455 a3.25 3.25 0 1 0 6.5 0 a3.25 3.25 0 1 0 -6.5 0zM217.75 533 a3.25 3.25 0 1 0 6.5 0 a3.25 3.25 0 1 0 -6.5 0z" fill="black"></path>
            <path d="M685.75 429 a3.25 3.25 0 1 0 6.5 0 a3.25 3.25 0 1 0 -6.5 0zM841.75 403 a3.25 3.25 0 1 0 6.5 0 a3.25 3.25 0 1 0 -6.5 0z" fill="black"></path>
            <path d="M191.75 325 a3.25 3.25 0 1 0 6.5 0 a3.25 3.25 0 1 0 -6.5 0zM217.75 273 a3.25 3.25 0 1 0 6.5 0 a3.25 3.25 0 1 0 -6.5 0z" fill="black"></path>
            <path d="M1101.75 377 a3.25 3.25 0 1 0 6.5 0 a3.25 3.25 0 1 0 -6.5 0zM1049.75 429 a3.25 3.25 0 1 0 6.5 0 a3.25 3.25 0 1 0 -6.5 0z" fill="black"></path>
            <path d="M1205.75 39 a3.25 3.25 0 1 0 6.5 0 a3.25 3.25 0 1 0 -6.5 0zM1153.75 117 a3.25 3.25 0 1 0 6.5 0 a3.25 3.25 0 1 0 -6.5 0z" fill="black"></path>
            <path d="M1049.75 117 a3.25 3.25 0 1 0 6.5 0 a3.25 3.25 0 1 0 -6.5 0zM1101.75 91 a3.25 3.25 0 1 0 6.5 0 a3.25 3.25 0 1 0 -6.5 0z" fill="black"></path>
            <path d="M1257.75 429 a3.25 3.25 0 1 0 6.5 0 a3.25 3.25 0 1 0 -6.5 0zM1335.75 377 a3.25 3.25 0 1 0 6.5 0 a3.25 3.25 0 1 0 -6.5 0z" fill="black"></path>
            <path d="M217.75 403 a3.25 3.25 0 1 0 6.5 0 a3.25 3.25 0 1 0 -6.5 0zM113.75 481 a3.25 3.25 0 1 0 6.5 0 a3.25 3.25 0 1 0 -6.5 0z" fill="black"></path>
            <path d="M295.75 377 a3.25 3.25 0 1 0 6.5 0 a3.25 3.25 0 1 0 -6.5 0zM269.75 533 a3.25 3.25 0 1 0 6.5 0 a3.25 3.25 0 1 0 -6.5 0z" fill="black"></path>
            <path d="M425.75 273 a3.25 3.25 0 1 0 6.5 0 a3.25 3.25 0 1 0 -6.5 0zM295.75 507 a3.25 3.25 0 1 0 6.5 0 a3.25 3.25 0 1 0 -6.5 0z" fill="black"></path>
            <path d="M1413.75 325 a3.25 3.25 0 1 0 6.5 0 a3.25 3.25 0 1 0 -6.5 0zM1413.75 247 a3.25 3.25 0 1 0 6.5 0 a3.25 3.25 0 1 0 -6.5 0z" fill="black"></path>
            <path d="M373.75 403 a3.25 3.25 0 1 0 6.5 0 a3.25 3.25 0 1 0 -6.5 0zM399.75 299 a3.25 3.25 0 1 0 6.5 0 a3.25 3.25 0 1 0 -6.5 0z" fill="black"></path>
            <path d="M737.75 65 a3.25 3.25 0 1 0 6.5 0 a3.25 3.25 0 1 0 -6.5 0zM607.75 65 a3.25 3.25 0 1 0 6.5 0 a3.25 3.25 0 1 0 -6.5 0z" fill="black"></path>
            <path d="M347.75 533 a3.25 3.25 0 1 0 6.5 0 a3.25 3.25 0 1 0 -6.5 0zM425.75 481 a3.25 3.25 0 1 0 6.5 0 a3.25 3.25 0 1 0 -6.5 0z" fill="black"></path>
            <path d="M477.75 403 a3.25 3.25 0 1 0 6.5 0 a3.25 3.25 0 1 0 -6.5 0zM425.75 429 a3.25 3.25 0 1 0 6.5 0 a3.25 3.25 0 1 0 -6.5 0z" fill="black"></path>
            <path d="M789.75 429 a3.25 3.25 0 1 0 6.5 0 a3.25 3.25 0 1 0 -6.5 0zM711.75 403 a3.25 3.25 0 1 0 6.5 0 a3.25 3.25 0 1 0 -6.5 0z" fill="black"></path>
            <path d="M87.75 221 a3.25 3.25 0 1 0 6.5 0 a3.25 3.25 0 1 0 -6.5 0zM139.75 247 a3.25 3.25 0 1 0 6.5 0 a3.25 3.25 0 1 0 -6.5 0z" fill="black"></path>
            <path d="M87.75 117 a3.25 3.25 0 1 0 6.5 0 a3.25 3.25 0 1 0 -6.5 0zM35.75 221 a3.25 3.25 0 1 0 6.5 0 a3.25 3.25 0 1 0 -6.5 0z" fill="black"></path>
            <path d="M113.75 429 a3.25 3.25 0 1 0 6.5 0 a3.25 3.25 0 1 0 -6.5 0zM9.75 403 a3.25 3.25 0 1 0 6.5 0 a3.25 3.25 0 1 0 -6.5 0z" fill="black"></path>
            <path d="M425.75 143 a3.25 3.25 0 1 0 6.5 0 a3.25 3.25 0 1 0 -6.5 0zM451.75 91 a3.25 3.25 0 1 0 6.5 0 a3.25 3.25 0 1 0 -6.5 0z" fill="black"></path>
            <path d="M191.75 143 a3.25 3.25 0 1 0 6.5 0 a3.25 3.25 0 1 0 -6.5 0zM217.75 91 a3.25 3.25 0 1 0 6.5 0 a3.25 3.25 0 1 0 -6.5 0z" fill="black"></path>
            <path d="M685.75 533 a3.25 3.25 0 1 0 6.5 0 a3.25 3.25 0 1 0 -6.5 0zM633.75 481 a3.25 3.25 0 1 0 6.5 0 a3.25 3.25 0 1 0 -6.5 0z" fill="black"></path>
            <path d="M61.75 195 a3.25 3.25 0 1 0 6.5 0 a3.25 3.25 0 1 0 -6.5 0zM61.75 65 a3.25 3.25 0 1 0 6.5 0 a3.25 3.25 0 1 0 -6.5 0z" fill="black"></path>
            <path d="M1023.75 221 a3.25 3.25 0 1 0 6.5 0 a3.25 3.25 0 1 0 -6.5 0zM1101.75 221 a3.25 3.25 0 1 0 6.5 0 a3.25 3.25 0 1 0 -6.5 0z" fill="black"></path>
            <path d="M243.75 507 a3.25 3.25 0 1 0 6.5 0 a3.25 3.25 0 1 0 -6.5 0zM243.75 455 a3.25 3.25 0 1 0 6.5 0 a3.25 3.25 0 1 0 -6.5 0z" fill="black"></path>
            <path d="M711.75 39 a3.25 3.25 0 1 0 6.5 0 a3.25 3.25 0 1 0 -6.5 0zM607.75 39 a3.25 3.25 0 1 0 6.5 0 a3.25 3.25 0 1 0 -6.5 0z" fill="black"></path>
            <path d="M165.75 143 a3.25 3.25 0 1 0 6.5 0 a3.25 3.25 0 1 0 -6.5 0zM165.75 195 a3.25 3.25 0 1 0 6.5 0 a3.25 3.25 0 1 0 -6.5 0z" fill="black"></path>
            <path d="M789.75 533 a3.25 3.25 0 1 0 6.5 0 a3.25 3.25 0 1 0 -6.5 0zM711.75 507 a3.25 3.25 0 1 0 6.5 0 a3.25 3.25 0 1 0 -6.5 0z" fill="black"></path>
            <path d="M867.75 481 a3.25 3.25 0 1 0 6.5 0 a3.25 3.25 0 1 0 -6.5 0zM815.75 533 a3.25 3.25 0 1 0 6.5 0 a3.25 3.25 0 1 0 -6.5 0z" fill="black"></path>
            <path d="M1075.75 273 a3.25 3.25 0 1 0 6.5 0 a3.25 3.25 0 1 0 -6.5 0zM1023.75 247 a3.25 3.25 0 1 0 6.5 0 a3.25 3.25 0 1 0 -6.5 0z" fill="black"></path>
            <path d="M1309.75 559 a3.25 3.25 0 1 0 6.5 0 a3.25 3.25 0 1 0 -6.5 0zM1439.75 559 a3.25 3.25 0 1 0 6.5 0 a3.25 3.25 0 1 0 -6.5 0z" fill="black"></path>
            <path d="M1101.75 429 a3.25 3.25 0 1 0 6.5 0 a3.25 3.25 0 1 0 -6.5 0zM1127.75 481 a3.25 3.25 0 1 0 6.5 0 a3.25 3.25 0 1 0 -6.5 0z" fill="black"></path>
            <path d="M581.75 325 a3.25 3.25 0 1 0 6.5 0 a3.25 3.25 0 1 0 -6.5 0zM529.75 325 a3.25 3.25 0 1 0 6.5 0 a3.25 3.25 0 1 0 -6.5 0z" fill="black"></path>
            <path d="M165.75 91 a3.25 3.25 0 1 0 6.5 0 a3.25 3.25 0 1 0 -6.5 0zM139.75 39 a3.25 3.25 0 1 0 6.5 0 a3.25 3.25 0 1 0 -6.5 0z" fill="black"></path>
            <path d="M191.75 13 a3.25 3.25 0 1 0 6.5 0 a3.25 3.25 0 1 0 -6.5 0zM165.75 65 a3.25 3.25 0 1 0 6.5 0 a3.25 3.25 0 1 0 -6.5 0z" fill="black"></path>
            <path d="M1101.75 247 a3.25 3.25 0 1 0 6.5 0 a3.25 3.25 0 1 0 -6.5 0zM1049.75 247 a3.25 3.25 0 1 0 6.5 0 a3.25 3.25 0 1 0 -6.5 0z" fill="black"></path>
            <path d="M945.75 403 a3.25 3.25 0 1 0 6.5 0 a3.25 3.25 0 1 0 -6.5 0zM997.75 403 a3.25 3.25 0 1 0 6.5 0 a3.25 3.25 0 1 0 -6.5 0z" fill="black"></path>
            <path d="M607.75 247 a3.25 3.25 0 1 0 6.5 0 a3.25 3.25 0 1 0 -6.5 0zM529.75 221 a3.25 3.25 0 1 0 6.5 0 a3.25 3.25 0 1 0 -6.5 0z" fill="black"></path>
            <path d="M633.75 169 a3.25 3.25 0 1 0 6.5 0 a3.25 3.25 0 1 0 -6.5 0zM633.75 247 a3.25 3.25 0 1 0 6.5 0 a3.25 3.25 0 1 0 -6.5 0z" fill="black"></path>
            <path d="M555.75 143 a3.25 3.25 0 1 0 6.5 0 a3.25 3.25 0 1 0 -6.5 0zM581.75 247 a3.25 3.25 0 1 0 6.5 0 a3.25 3.25 0 1 0 -6.5 0z" fill="black"></path>
            <path d="M945.75 247 a3.25 3.25 0 1 0 6.5 0 a3.25 3.25 0 1 0 -6.5 0zM919.75 195 a3.25 3.25 0 1 0 6.5 0 a3.25 3.25 0 1 0 -6.5 0z" fill="black"></path>
            <path d="M373.75 429 a3.25 3.25 0 1 0 6.5 0 a3.25 3.25 0 1 0 -6.5 0zM347.75 351 a3.25 3.25 0 1 0 6.5 0 a3.25 3.25 0 1 0 -6.5 0z" fill="black"></path>
            <path d="M945.75 13 a3.25 3.25 0 1 0 6.5 0 a3.25 3.25 0 1 0 -6.5 0zM763.75 13 a3.25 3.25 0 1 0 6.5 0 a3.25 3.25 0 1 0 -6.5 0z" fill="black"></path>
            <path d="M867.75 39 a3.25 3.25 0 1 0 6.5 0 a3.25 3.25 0 1 0 -6.5 0zM945.75 39 a3.25 3.25 0 1 0 6.5 0 a3.25 3.25 0 1 0 -6.5 0z" fill="black"></path>
            <path d="M711.75 455 a3.25 3.25 0 1 0 6.5 0 a3.25 3.25 0 1 0 -6.5 0zM659.75 455 a3.25 3.25 0 1 0 6.5 0 a3.25 3.25 0 1 0 -6.5 0z" fill="black"></path>
            <path d="M815.75 403 a3.25 3.25 0 1 0 6.5 0 a3.25 3.25 0 1 0 -6.5 0zM737.75 403 a3.25 3.25 0 1 0 6.5 0 a3.25 3.25 0 1 0 -6.5 0z" fill="black"></path>
            <path d="M477.75 559 a3.25 3.25 0 1 0 6.5 0 a3.25 3.25 0 1 0 -6.5 0zM399.75 559 a3.25 3.25 0 1 0 6.5 0 a3.25 3.25 0 1 0 -6.5 0z" fill="black"></path>
            <path d="M971.75 247 a3.25 3.25 0 1 0 6.5 0 a3.25 3.25 0 1 0 -6.5 0zM945.75 299 a3.25 3.25 0 1 0 6.5 0 a3.25 3.25 0 1 0 -6.5 0z" fill="black"></path>
            <path d="M841.75 221 a3.25 3.25 0 1 0 6.5 0 a3.25 3.25 0 1 0 -6.5 0zM815.75 169 a3.25 3.25 0 1 0 6.5 0 a3.25 3.25 0 1 0 -6.5 0z" fill="black"></path>
            <path d="M295.75 455 a3.25 3.25 0 1 0 6.5 0 a3.25 3.25 0 1 0 -6.5 0zM295.75 403 a3.25 3.25 0 1 0 6.5 0 a3.25 3.25 0 1 0 -6.5 0z" fill="black"></path>
        </mask>
    </defs>
</svg>